<?xml version="1.0" encoding="utf-8"?>
<!-- Generator: Adobe Illustrator 19.0.0, SVG Export Plug-In . SVG Version: 6.00 Build 0)  -->
<svg version="1.1" id="Layer_1" xmlns="http://www.w3.org/2000/svg" xmlns:xlink="http://www.w3.org/1999/xlink" x="0px" y="0px"
	 viewBox="-1970 1121.7 309.5 309.5" style="enable-background:new -1970 1121.7 309.5 309.5;" xml:space="preserve">
<style type="text/css">
	.st0{fill:#E2574C;}
	.st1{fill:#B53629;}
	.st2{fill:#5D5D5D;}
	.st3{fill:#FFFFFF;}
</style>
<g>
	<path class="st0" d="M-1790.3,1372.9c0-39.6,32.1-71.7,71.7-71.7c6.7,0,13.2,1,19.3,2.7v-95.6l-87-86.7h-164.2
		c-10.7,0-19.3,8.6-19.3,19.3v270.6c0,10.7,8.7,19.3,19.3,19.3h189.9C-1778.6,1417.9-1790.3,1396.8-1790.3,1372.9z"/>
	<path class="st1" d="M-1699.5,1208.6h-67.4c-10.7,0-19.3-8.7-19.3-19.3v-67.5L-1699.5,1208.6z"/>
	<path class="st2" d="M-1718.6,1315.2c32,0,58,26,58,58c0,32-26,58-58,58c-32,0-58-26-58-58
		C-1776.6,1341.2-1750.6,1315.2-1718.6,1315.2z"/>
	<path class="st3" d="M-1771.8,1268.2c3.2,0,4.8-2.8,4.8-5.6c0-2.8-1.7-5.6-4.8-5.6h-18.4c-3.6,0-5.6,3-5.6,6.3v45.3
		c0,4,2.3,6.3,5.4,6.3c3.1,0,5.4-2.2,5.4-6.3v-12.4h11.2c3.5,0,5.2-2.8,5.2-5.6c0-2.8-1.7-5.5-5.2-5.5h-11.2v-16.9
		C-1785,1268.2-1771.8,1268.2-1771.8,1268.2z M-1834.1,1257.1h-13.5c-3.7,0-6.3,2.5-6.3,6.2v45.4c0,4.6,3.7,6.1,6.4,6.1h14.2
		c16.8,0,27.8-11,27.8-28C-1805.5,1268.7-1815.9,1257.1-1834.1,1257.1z M-1833.4,1303.6h-8.2v-35.3h7.4c11.2,0,16.1,7.5,16.1,17.9
		C-1818.2,1295.9-1822.9,1303.6-1833.4,1303.6z M-1882.9,1257.1h-13.4c-3.8,0-5.9,2.5-5.9,6.3v45.3c0,4,2.4,6.3,5.7,6.3
		c3.2,0,5.7-2.2,5.7-6.3v-13.2h8.4c10.3,0,18.9-7.3,18.9-19.1C-1863.5,1264.8-1871.8,1257.1-1882.9,1257.1z M-1883.1,1284.8h-7.7
		v-17.1h7.7c4.8,0,7.8,3.7,7.8,8.6C-1875.3,1281.1-1878.3,1284.8-1883.1,1284.8z"/>
</g>
<polygon class="st3" points="-1709.3,1337.8 -1727.8,1337.8 -1727.8,1371.7 -1748.9,1371.7 -1718.6,1408.6 -1688.3,1371.7 
	-1709.3,1371.7 "/>
</svg>
